<svg xmlns="http://www.w3.org/2000/svg" viewBox="0 0 256 256" role="img" aria-label="OrderQR logo">
  <defs>
    <linearGradient id="bg" x1="0" y1="0" x2="1" y2="1">
      <stop offset="0%" stop-color="#d3702d" />
      <stop offset="100%" stop-color="#b85a1f" />
    </linearGradient>
    <linearGradient id="cup" x1="0" y1="0" x2="0" y2="1">
      <stop offset="0%" stop-color="#fff8ef" />
      <stop offset="100%" stop-color="#f5e6d6" />
    </linearGradient>
  </defs>

  <rect x="12" y="12" width="232" height="232" rx="58" fill="url(#bg)" />

  <rect x="58" y="54" width="140" height="140" rx="26" fill="#ffffff" fill-opacity="0.2" />

  <path
    d="M95 101h66a8 8 0 0 1 8 8v31a27 27 0 0 1-27 27h-28a27 27 0 0 1-27-27v-31a8 8 0 0 1 8-8z"
    fill="url(#cup)"
  />
  <path
    d="M167 112h13c11 0 20 9 20 20s-9 20-20 20h-11"
    fill="none"
    stroke="#f5e6d6"
    stroke-width="10"
    stroke-linecap="round"
    stroke-linejoin="round"
  />
  <path d="M90 180h86" stroke="#fff8ef" stroke-width="10" stroke-linecap="round" />

  <path d="M114 84c0-8 8-8 8-16" stroke="#fff8ef" stroke-width="6" stroke-linecap="round" fill="none" />
  <path d="M128 84c0-8 8-8 8-16" stroke="#fff8ef" stroke-width="6" stroke-linecap="round" fill="none" />
  <path d="M142 84c0-8 8-8 8-16" stroke="#fff8ef" stroke-width="6" stroke-linecap="round" fill="none" />

  <g fill="#fff8ef">
    <rect x="40" y="208" width="10" height="10" rx="2" />
    <rect x="56" y="208" width="10" height="10" rx="2" />
    <rect x="72" y="208" width="10" height="10" rx="2" />
    <rect x="40" y="224" width="10" height="10" rx="2" />
    <rect x="56" y="224" width="10" height="10" rx="2" />
    <rect x="72" y="224" width="10" height="10" rx="2" />
  </g>
</svg>
